<svg xmlns="http://www.w3.org/2000/svg" version="1.1" xmlns:xlink="http://www.w3.org/1999/xlink" xmlns:svgjs="http://svgjs.dev/svgjs" width="200" height="200" viewBox="0 0 200 200" fill="none">
	<rect width="200" height="200"></rect>
	<g>
		<svg viewBox="0 0 199.98054641830095 171.0717755614076" height="199.98054641830095" width="199.98054641830095">
			<g>
				<svg xmlns="http://www.w3.org/2000/svg" xmlns:xlink="http://www.w3.org/1999/xlink" version="1.1" x="0" y="0" viewBox="6.492000102996826 12.780998229980469 87.0169906616211 74.43799591064453" enable-background="new 0 0 100 100" xml:space="preserve" height="171.0717755614076" width="199.98054641830095" class="icon-icon-0" data-fill-palette-color="accent" id="icon-0">
					<path d="M50.285 25.119c-1.211 0-2.189-0.983-2.189-2.186v-7.965c0-1.207 0.982-2.187 2.189-2.187 1.203 0 2.184 0.981 2.184 2.187v7.963C52.469 24.139 51.488 25.119 50.285 25.119" fill="#ffffff" data-fill-palette-color="accent"></path>
					<path d="M24.729 18.759l5.632 5.63c0.851 0.853 0.851 2.238 0 3.091-0.854 0.852-2.241 0.852-3.092 0l-5.628-5.63c-0.851-0.853-0.851-2.237 0-3.091C22.496 17.904 23.881 17.904 24.729 18.759" fill="#ffffff" data-fill-palette-color="accent"></path>
					<path d="M69.271 27.478c-0.853-0.854-0.853-2.238 0-3.091l5.627-5.633c0.852-0.85 2.242-0.85 3.09 0 0.852 0.855 0.852 2.239 0 3.093l-5.627 5.631C71.508 28.332 70.123 28.332 69.271 27.478" fill="#ffffff" data-fill-palette-color="accent"></path>
					<path d="M50.285 74.881c-1.211 0-2.189 0.982-2.189 2.186v7.965c0 1.208 0.982 2.187 2.189 2.187 1.203 0 2.184-0.981 2.184-2.187v-7.962C52.469 75.862 51.488 74.881 50.285 74.881" fill="#ffffff" data-fill-palette-color="accent"></path>
					<path d="M24.729 81.242l5.632-5.631c0.851-0.854 0.851-2.237 0-3.091-0.854-0.851-2.241-0.851-3.092 0l-5.628 5.632c-0.851 0.852-0.851 2.236 0 3.09C22.496 82.096 23.881 82.096 24.729 81.242" fill="#ffffff" data-fill-palette-color="accent"></path>
					<path d="M69.271 72.523c-0.853 0.854-0.853 2.238 0 3.09l5.627 5.633c0.852 0.85 2.242 0.85 3.09 0 0.852-0.854 0.852-2.239 0-3.093l-5.627-5.63C71.508 71.668 70.123 71.668 69.271 72.523" fill="#ffffff" data-fill-palette-color="accent"></path>
					<path d="M6.492 49.997c0 1.213 0.983 2.189 2.186 2.189h7.965c1.207 0 2.186-0.981 2.186-2.189 0-1.202-0.981-2.183-2.186-2.183H8.681C7.474 47.814 6.492 48.794 6.492 49.997" fill="#ffffff" data-fill-palette-color="accent"></path>
					<path d="M81.171 49.997c0 1.213 0.983 2.189 2.187 2.189h7.964c1.208 0 2.187-0.981 2.187-2.189 0-1.202-0.981-2.183-2.187-2.183h-7.962C82.151 47.814 81.171 48.794 81.171 49.997" fill="#ffffff" data-fill-palette-color="accent"></path>
					<path d="M27.283 50c0.034 0.658 0.336 1.371 0.875 2.063 3.331 4.232 12.195 12.262 21.837 12.262 9.64 0 18.506-8.028 21.847-12.273 0.54-0.685 0.842-1.394 0.876-2.051-0.035-0.657-0.337-1.365-0.877-2.053-3.34-4.243-12.204-12.271-21.836-12.271-9.649 0-18.517 8.028-21.857 12.272C27.619 48.63 27.317 49.341 27.283 50M49.995 69.271c-5.028 0-10.443-1.777-15.661-5.142-3.783-2.438-7.55-5.811-10.074-9.021-1.217-1.565-1.879-3.307-1.924-5.044-0.001-0.043-0.001-0.086 0-0.13 0.045-1.738 0.707-3.48 1.915-5.033 2.534-3.22 6.302-6.592 10.09-9.032 5.219-3.363 10.636-5.142 15.664-5.142 5.024 0 10.435 1.778 15.65 5.143 3.783 2.438 7.549 5.811 10.074 9.019 1.222 1.556 1.89 3.3 1.936 5.046 0.001 0.044 0.001 0.088 0 0.13-0.046 1.747-0.714 3.491-1.933 5.042-2.528 3.212-6.296 6.585-10.078 9.022C60.438 67.494 55.022 69.271 49.995 69.271" fill="#ffffff" data-fill-palette-color="accent"></path>
					<path d="M53.499 53.505c-1.935 1.935-5.073 1.935-7.009 0-1.935-1.936-1.935-5.074 0-7.01 1.936-1.935 5.075-1.935 7.009 0C55.436 48.431 55.436 51.569 53.499 53.505M56.368 43.627c-3.521-3.52-9.227-3.52-12.747 0-3.52 3.521-3.52 9.226 0 12.745 3.52 3.521 9.226 3.521 12.747 0C59.888 52.853 59.888 47.147 56.368 43.627" fill="#ffffff" data-fill-palette-color="accent"></path>
				</svg>
			</g>
		</svg>
	</g>
</svg>