<?xml version="1.0" encoding="iso-8859-1"?>
<!-- Uploaded to: SVG Repo, www.svgrepo.com, Generator: SVG Repo Mixer Tools -->
<svg fill="#ffffff" height="800px" width="800px" version="1.1" id="Layer_1" xmlns="http://www.w3.org/2000/svg" xmlns:xlink="http://www.w3.org/1999/xlink"
	 viewBox="0 0 512 512" xml:space="preserve">
<g>
	<g>
		<path d="M504.984,407.552c-4.486-4.37-10.547-6.739-16.809-6.578c-33.187,0.855-64.219-6.478-92.22-26.71
			c-25.3-18.279-45.075-44.849-61.547-71.479c-9.209-14.888-17.894-33.443-42.745-52.21c-30.764-23.236-71.898-33.537-109.531-33.63
			v-50.912l55.611,41.751c25.235,6.452,49.633,17.687,70.077,34.915c18.506,15.595,27.542,30.093,35.339,43.223l10.051-4.423
			l5.98,29.697c12.223,17.828,24.964,32.867,39.287,44.615c1.685-3.255,2.321-7.08,1.541-10.952l-18.14-90.084
			c-0.993-4.926-4.152-9.143-8.601-11.481c-4.449-2.336-9.714-2.544-14.333-0.566l-23.457,10.049
			c-6.28-25.238-8.436-33.902-14.58-58.596l56.505-77.152c4.538-6.196,3.194-14.9-3.003-19.439
			c-6.197-4.539-14.898-3.194-19.44,3.003l-57.133,78.01l-38.956,10.266l-76.747-57.619v-9.2c0-5.202-2.352-10.126-6.399-13.395
			l-75.536-61.009c-5.327-4.302-12.935-4.302-18.263,0L6.399,108.655C2.353,111.925,0,116.848,0,122.05v337.033
			c0,4.693,3.805,8.497,8.497,8.497h20.366c4.693,0,8.498-3.805,8.498-8.497v-90.074h107.411v90.074
			c0,4.693,3.805,8.497,8.497,8.497h4.179c0.21,0,0.275,0,0.266,0h15.921c4.693,0,8.498-3.805,8.498-8.497V284.537
			c18.986,2.052,43.324,7.407,65.79,20.479c18.565,10.803,33.309,25.424,43.879,43.523c23.311,39.917,44.09,65.968,67.373,84.471
			c38.645,30.711,83.079,38.657,132.495,32.511c0.009-0.001,0.019-0.002,0.029-0.003C503.326,464.062,512,454.201,512,442.482v-18.3
			C512,417.919,509.469,411.922,504.984,407.552z M144.772,339.822L144.772,339.822H37.361v-40.863h107.411V339.822z
			 M144.772,269.771L144.772,269.771H37.361v-42.007h107.411V269.771z"/>
	</g>
</g>
<g>
	<g>
		<path d="M448.619,294.203c-58.083-46.371-53.978-43.173-55.356-44.016c0.486,1.719-0.339-2.18,10.325,50.777l24.206,19.325
			c7.204,5.752,17.706,4.571,23.456-2.631C457.001,310.456,455.823,299.954,448.619,294.203z"/>
	</g>
</g>
<g>
	<g>
		<circle cx="271.262" cy="146.57" r="32.45"/>
	</g>
</g>
</svg>