<?xml version="1.0" encoding="utf-8"?><!-- Uploaded to: SVG Repo, www.svgrepo.com, Generator: SVG Repo Mixer Tools -->
<svg width="800px" height="800px" viewBox="0 0 24 24" fill="none" xmlns="http://www.w3.org/2000/svg">
<path d="M14.9999 15.2547C13.8661 14.4638 12.4872 14 10.9999 14C7.40399 14 4.44136 16.7114 4.04498 20.2013C4.01693 20.4483 4.0029 20.5718 4.05221 20.6911C4.09256 20.7886 4.1799 20.8864 4.2723 20.9375C4.38522 21 4.52346 21 4.79992 21H9.94465M13.9999 19.2857L15.7999 21L19.9999 17M14.9999 7C14.9999 9.20914 13.2091 11 10.9999 11C8.79078 11 6.99992 9.20914 6.99992 7C6.99992 4.79086 8.79078 3 10.9999 3C13.2091 3 14.9999 4.79086 14.9999 7Z" stroke="#000000" stroke-width="2" stroke-linecap="round" stroke-linejoin="round"/>
</svg>